<?xml version="1.0" standalone="no"?>
<!DOCTYPE svg PUBLIC "-//W3C//DTD SVG 20010904//EN"
 "http://www.w3.org/TR/2001/REC-SVG-20010904/DTD/svg10.dtd">
<svg version="1.0" xmlns="http://www.w3.org/2000/svg"
 width="512.000000pt" height="512.000000pt" viewBox="0 0 512.000000 512.000000"
 preserveAspectRatio="xMidYMid meet">
<metadata>
Created by potrace 1.11, written by Peter Selinger 2001-2013
</metadata>
<g transform="translate(0.000000,512.000000) scale(0.100000,-0.100000)"
fill="#000000" stroke="none">
<path d="M2367 5114 c-1 -1 -32 -4 -68 -8 -58 -5 -224 -32 -314 -51 -115 -24
-432 -131 -470 -159 -16 -12 -16 -15 4 -59 12 -26 26 -59 31 -73 12 -30 -3
-33 182 35 227 84 421 126 678 146 19 2 61 4 92 4 l57 1 -1 86 -1 85 -94 -3
c-52 -1 -95 -3 -96 -4z"/>
<path d="M2920 5091 c-1 -3 -4 -31 -7 -61 -11 -99 -11 -105 17 -108 62 -8 264
-56 349 -83 178 -57 391 -154 516 -234 l54 -34 39 62 c21 34 42 67 45 74 17
28 -327 202 -558 281 -135 46 -454 119 -455 103z"/>
<path d="M1075 4644 c-200 -145 -376 -314 -528 -504 -51 -65 -137 -185 -137
-193 0 -7 125 -87 137 -87 6 0 23 19 38 43 135 206 385 459 601 610 41 28 74
55 74 61 0 13 -81 136 -89 136 -3 0 -46 -30 -96 -66z"/>
<path d="M2330 4594 c-52 -7 -103 -13 -112 -13 -21 -1 -22 -20 -6 -108 l12
-65 40 7 c84 13 164 19 276 19 117 1 295 -10 309 -18 4 -3 25 -7 47 -10 21 -2
91 -19 154 -36 63 -17 121 -32 128 -33 9 -1 24 27 42 76 l27 77 -78 25 c-189
59 -362 86 -579 89 -92 2 -207 -3 -260 -10z"/>
<path d="M4207 4468 c-9 -13 -31 -40 -50 -60 l-35 -37 82 -79 c215 -209 363
-407 491 -660 21 -42 42 -71 49 -68 6 3 38 16 71 30 33 14 61 29 63 34 7 22
-97 215 -189 353 -54 81 -147 202 -214 278 -62 71 -229 231 -240 231 -7 0 -20
-10 -28 -22z"/>
<path d="M1810 4468 c-300 -130 -539 -293 -735 -500 l-87 -93 43 -38 c90 -79
74 -83 196 41 170 172 371 311 585 404 51 22 94 41 95 42 6 5 -55 150 -63 152
-5 2 -20 -2 -34 -8z"/>
<path d="M3528 4270 c-21 -38 -38 -71 -38 -74 0 -2 35 -26 78 -52 207 -130
411 -329 554 -543 28 -42 52 -78 54 -80 4 -4 144 78 144 84 0 11 -96 152 -151
222 -86 109 -267 286 -379 369 -87 65 -209 144 -220 144 -3 0 -22 -32 -42 -70z"/>
<path d="M2390 4003 c-500 -77 -895 -351 -1115 -775 -80 -154 -122 -286 -152
-473 -4 -27 -7 -124 -7 -215 1 -183 18 -288 75 -453 52 -152 160 -345 247
-444 86 -96 135 -144 227 -223 96 -81 289 -185 437 -234 157 -53 268 -70 458
-70 159 -1 215 5 335 34 398 95 737 353 937 715 69 125 134 306 153 425 3 19
9 60 14 90 10 59 7 346 -3 395 -4 17 -11 55 -17 85 -21 109 -60 221 -121 344
-46 92 -115 204 -145 234 -7 7 -13 16 -13 20 0 12 -162 176 -220 224 -176 144
-413 257 -620 297 -30 6 -68 13 -85 17 -34 7 -347 13 -385 7z"/>
<path d="M227 3613 c-34 -57 -131 -344 -161 -473 -18 -82 -25 -121 -40 -225
-14 -103 -16 -123 -21 -242 l-6 -123 86 0 c81 0 85 1 85 23 3 157 18 305 47
447 8 41 17 85 19 98 15 79 104 341 134 394 19 33 10 45 -52 73 -88 38 -85 37
-91 28z"/>
<path d="M721 3458 c-89 -184 -162 -421 -186 -598 -3 -25 -8 -61 -10 -80 -3
-19 -7 -88 -10 -153 l-4 -118 86 3 87 3 2 103 c1 56 5 124 9 150 3 26 9 63 11
82 23 172 102 410 192 578 38 73 42 65 -59 121 l-58 32 -60 -123z"/>
<path d="M4935 3262 c-44 -13 -81 -25 -82 -26 -1 0 9 -41 22 -90 13 -48 27
-104 30 -124 3 -19 7 -44 10 -56 6 -30 15 -91 23 -166 9 -88 8 -407 -2 -500
l-8 -76 79 -10 c43 -6 81 -8 85 -5 12 11 22 165 23 346 0 220 -10 338 -45 505
-6 30 -14 66 -16 80 -3 14 -13 52 -22 85 l-17 61 -80 -24z"/>
<path d="M4400 3254 c-36 -14 -69 -29 -73 -33 -4 -5 -1 -26 7 -47 25 -63 60
-200 72 -274 3 -19 7 -41 9 -48 23 -67 24 -480 2 -584 -2 -11 6 -13 83 -23 25
-3 53 -8 62 -11 10 -3 18 2 21 13 20 72 30 390 16 508 -9 69 -24 171 -34 230
-16 87 -82 296 -94 294 -3 0 -35 -12 -71 -25z"/>
<path d="M95 2197 c-33 -5 -61 -11 -63 -12 -5 -5 19 -138 45 -240 48 -194 112
-365 201 -540 64 -125 132 -237 141 -233 27 14 131 84 131 90 0 3 -21 42 -46
85 -76 128 -133 251 -200 428 -9 25 -9 25 -34 110 -12 39 -23 77 -25 85 -22
97 -34 153 -39 193 -8 53 -5 52 -111 34z"/>
<path d="M667 2180 c-15 -5 -43 -11 -61 -13 -39 -5 -58 -15 -52 -26 3 -4 7
-18 10 -32 35 -163 121 -392 193 -514 16 -27 31 -54 33 -60 11 -39 203 -303
226 -312 8 -3 40 17 74 47 l60 52 -54 66 c-176 219 -305 489 -370 775 -7 28
-14 30 -59 17z"/>
<path d="M4300 1858 c-99 -244 -224 -432 -427 -636 l-82 -83 33 -37 c18 -20
41 -47 52 -59 10 -13 22 -23 27 -23 15 0 145 130 223 223 91 108 175 232 242
357 48 91 122 259 122 278 0 7 -134 62 -152 62 -2 0 -19 -37 -38 -82z"/>
<path d="M4841 1848 c-77 -261 -250 -582 -428 -794 l-43 -52 65 -56 64 -57 56
68 c127 153 288 423 368 618 30 73 98 267 95 270 -5 3 -153 45 -159 45 -3 0
-11 -19 -18 -42z"/>
<path d="M1327 1027 l-48 -62 28 -23 c147 -121 446 -279 628 -331 132 -39 203
-56 275 -67 l36 -5 12 82 c6 45 11 84 9 85 -1 1 -20 5 -42 8 -90 15 -269 67
-369 108 -138 57 -283 137 -397 220 -37 26 -71 48 -75 47 -5 0 -31 -28 -57
-62z"/>
<path d="M717 952 c-23 -21 -50 -44 -60 -54 -14 -12 -16 -21 -9 -35 12 -22
208 -213 276 -268 27 -22 63 -52 80 -66 63 -52 264 -179 377 -238 64 -34 118
-61 121 -61 7 0 72 150 67 154 -2 1 -53 29 -114 61 -98 51 -312 186 -325 205
-3 4 -12 11 -22 16 -30 17 -132 107 -242 215 l-108 107 -41 -36z"/>
<path d="M3424 896 c-108 -55 -125 -63 -224 -99 -69 -26 -196 -63 -245 -71
-16 -3 -54 -10 -82 -15 -49 -10 -171 -22 -236 -25 -35 -2 -43 -15 -41 -63 1
-21 2 -55 3 -75 l1 -37 68 5 c265 16 481 68 720 172 93 41 222 109 222 117 0
4 -79 136 -84 141 0 1 -46 -21 -102 -50z"/>
<path d="M4109 744 c-8 -9 -48 -43 -90 -75 -200 -152 -433 -279 -660 -359 -88
-31 -119 -47 -115 -57 3 -7 13 -39 22 -71 9 -31 20 -61 24 -66 15 -15 245 70
405 150 176 89 377 220 514 337 l33 27 -57 65 c-31 36 -58 65 -60 65 -1 0 -9
-7 -16 -16z"/>
<path d="M1871 183 c-14 -52 -17 -79 -10 -84 17 -10 203 -51 314 -69 193 -30
562 -34 730 -6 17 3 20 10 17 52 -1 27 -4 58 -7 69 -2 11 -4 28 -4 38 -1 13
-6 17 -18 13 -89 -26 -521 -26 -668 -1 -121 21 -208 39 -255 51 -30 8 -59 14
-66 14 -6 0 -21 -35 -33 -77z"/>
</g>
</svg>
